<svg xmlns="http://www.w3.org/2000/svg" xmlns:xlink="http://www.w3.org/1999/xlink" width="500" zoomAndPan="magnify" viewBox="0 0 375 187.499995" height="250" preserveAspectRatio="xMidYMid meet" version="1.0"><defs><g/><clipPath id="id1"><path d="M 47 16.859375 L 106 16.859375 L 106 175.4375 L 47 175.4375 Z M 47 16.859375 " clip-rule="nonzero"/></clipPath></defs><g clip-path="url(#id1)"><path fill="#ff66c4" d="M 76.195312 175.441406 C 68.046875 175.441406 60.59375 166.902344 55.207031 151.398438 C 50.070312 136.605469 47.242188 116.984375 47.242188 96.148438 C 47.242188 75.308594 50.070312 55.6875 55.207031 40.898438 C 60.59375 25.394531 68.042969 16.855469 76.195312 16.855469 C 84.339844 16.855469 91.792969 25.394531 97.179688 40.898438 C 102.316406 55.6875 105.144531 75.308594 105.144531 96.148438 C 105.144531 116.984375 102.316406 136.605469 97.179688 151.398438 C 91.792969 166.902344 84.339844 175.441406 76.195312 175.441406 Z M 76.195312 21.179688 C 64.300781 21.179688 51.570312 51.304688 51.570312 96.148438 C 51.570312 140.992188 64.300781 171.117188 76.195312 171.117188 C 88.085938 171.117188 100.816406 140.992188 100.816406 96.148438 C 100.816406 51.304688 88.085938 21.179688 76.195312 21.179688 Z M 76.195312 21.179688 " fill-opacity="1" fill-rule="nonzero"/></g><path fill="#ff66c4" d="M 26.125 146.910156 C 26.121094 146.910156 26.125 146.910156 26.121094 146.910156 C 18.691406 146.910156 13.28125 144.726562 10.484375 140.601562 C 5.917969 133.859375 8.816406 122.902344 18.644531 109.753906 C 28.023438 97.210938 42.695312 83.871094 59.964844 72.191406 C 84.402344 55.65625 109.808594 45.382812 126.265625 45.382812 C 133.695312 45.382812 139.101562 47.566406 141.898438 51.695312 C 146.46875 58.4375 143.570312 69.390625 133.738281 82.539062 C 124.363281 95.082031 109.691406 108.421875 92.421875 120.105469 C 67.984375 136.640625 42.578125 146.910156 26.125 146.910156 Z M 126.265625 49.707031 C 110.628906 49.707031 86.152344 59.695312 62.386719 75.769531 C 25.226562 100.910156 7.402344 128.335938 14.070312 138.175781 C 16.539062 141.820312 21.984375 142.585938 26.121094 142.585938 C 26.121094 142.585938 26.125 142.585938 26.125 142.585938 C 41.761719 142.585938 66.234375 132.601562 89.996094 116.523438 C 106.875 105.105469 121.179688 92.117188 130.273438 79.953125 C 138.789062 68.5625 141.722656 59.144531 138.316406 54.121094 C 135.847656 50.472656 130.398438 49.707031 126.265625 49.707031 Z M 126.265625 49.707031 " fill-opacity="1" fill-rule="nonzero"/><path fill="#ff66c4" d="M 126.203125 146.898438 C 121.613281 146.898438 116.246094 146.097656 110.210938 144.488281 C 95.074219 140.445312 77.230469 131.785156 59.964844 120.105469 C 51.789062 114.574219 44.175781 108.660156 37.332031 102.527344 C 36.441406 101.730469 36.367188 100.363281 37.164062 99.476562 C 37.964844 98.585938 39.332031 98.511719 40.21875 99.308594 C 46.917969 105.3125 54.375 111.105469 62.386719 116.527344 C 79.265625 127.945312 96.644531 136.390625 111.328125 140.308594 C 125.074219 143.980469 134.910156 143.203125 138.316406 138.175781 C 141.71875 133.152344 138.789062 123.734375 130.273438 112.34375 C 121.179688 100.179688 106.875 87.191406 89.996094 75.773438 C 52.835938 50.632812 20.734375 44.28125 14.066406 54.121094 C 11.074219 58.539062 12.9375 66.300781 19.3125 75.980469 C 19.96875 76.976562 19.695312 78.316406 18.695312 78.972656 C 17.695312 79.628906 16.355469 79.355469 15.699219 78.355469 C 8.191406 66.960938 6.390625 57.742188 10.484375 51.695312 C 15.050781 44.953125 26.308594 43.574219 42.175781 47.808594 C 57.308594 51.851562 75.15625 60.511719 92.421875 72.191406 C 109.6875 83.875 124.363281 97.214844 133.738281 109.757812 C 143.566406 122.902344 146.464844 133.859375 141.898438 140.601562 C 139.070312 144.777344 133.671875 146.898438 126.203125 146.898438 Z M 126.203125 146.898438 " fill-opacity="1" fill-rule="nonzero"/><path fill="#03989e" d="M 94.980469 96.148438 C 94.980469 96.761719 94.949219 97.375 94.886719 97.988281 C 94.828125 98.597656 94.738281 99.207031 94.617188 99.808594 C 94.496094 100.414062 94.347656 101.007812 94.171875 101.597656 C 93.992188 102.183594 93.785156 102.761719 93.550781 103.332031 C 93.3125 103.898438 93.050781 104.453125 92.761719 104.996094 C 92.472656 105.539062 92.15625 106.066406 91.8125 106.578125 C 91.472656 107.089844 91.105469 107.582031 90.714844 108.058594 C 90.324219 108.53125 89.910156 108.988281 89.476562 109.421875 C 89.042969 109.855469 88.585938 110.269531 88.109375 110.660156 C 87.636719 111.050781 87.140625 111.414062 86.628906 111.757812 C 86.117188 112.097656 85.589844 112.414062 85.050781 112.703125 C 84.507812 112.992188 83.949219 113.257812 83.382812 113.492188 C 82.8125 113.726562 82.234375 113.933594 81.648438 114.113281 C 81.058594 114.289062 80.460938 114.441406 79.859375 114.558594 C 79.253906 114.679688 78.648438 114.769531 78.035156 114.828125 C 77.421875 114.890625 76.808594 114.921875 76.195312 114.921875 C 75.578125 114.921875 74.964844 114.890625 74.351562 114.828125 C 73.738281 114.769531 73.132812 114.679688 72.527344 114.558594 C 71.925781 114.441406 71.328125 114.289062 70.738281 114.113281 C 70.152344 113.933594 69.574219 113.726562 69.003906 113.492188 C 68.4375 113.257812 67.878906 112.992188 67.339844 112.703125 C 66.796875 112.414062 66.269531 112.097656 65.757812 111.757812 C 65.246094 111.414062 64.75 111.050781 64.277344 110.660156 C 63.800781 110.269531 63.34375 109.855469 62.910156 109.421875 C 62.476562 108.988281 62.0625 108.53125 61.671875 108.058594 C 61.28125 107.582031 60.914062 107.089844 60.574219 106.578125 C 60.230469 106.066406 59.914062 105.539062 59.625 104.996094 C 59.335938 104.453125 59.074219 103.898438 58.835938 103.332031 C 58.601562 102.761719 58.394531 102.183594 58.214844 101.597656 C 58.039062 101.007812 57.890625 100.414062 57.769531 99.808594 C 57.648438 99.207031 57.558594 98.597656 57.5 97.988281 C 57.4375 97.375 57.40625 96.761719 57.40625 96.148438 C 57.40625 95.53125 57.4375 94.917969 57.5 94.308594 C 57.558594 93.695312 57.648438 93.089844 57.769531 92.484375 C 57.890625 91.882812 58.039062 91.285156 58.214844 90.699219 C 58.394531 90.109375 58.601562 89.53125 58.835938 88.964844 C 59.074219 88.394531 59.335938 87.839844 59.625 87.296875 C 59.914062 86.757812 60.230469 86.230469 60.574219 85.71875 C 60.914062 85.207031 61.28125 84.714844 61.671875 84.238281 C 62.0625 83.761719 62.476562 83.308594 62.910156 82.875 C 63.34375 82.4375 63.800781 82.027344 64.277344 81.636719 C 64.75 81.246094 65.246094 80.878906 65.757812 80.539062 C 66.269531 80.199219 66.796875 79.882812 67.339844 79.589844 C 67.878906 79.300781 68.4375 79.039062 69.003906 78.804688 C 69.574219 78.570312 70.152344 78.363281 70.738281 78.183594 C 71.328125 78.003906 71.925781 77.855469 72.527344 77.734375 C 73.132812 77.617188 73.738281 77.527344 74.351562 77.464844 C 74.964844 77.40625 75.578125 77.375 76.195312 77.375 C 76.808594 77.375 77.421875 77.40625 78.035156 77.464844 C 78.648438 77.527344 79.253906 77.617188 79.859375 77.734375 C 80.460938 77.855469 81.058594 78.003906 81.648438 78.183594 C 82.234375 78.363281 82.8125 78.570312 83.382812 78.804688 C 83.949219 79.039062 84.507812 79.300781 85.050781 79.589844 C 85.589844 79.882812 86.117188 80.199219 86.628906 80.539062 C 87.140625 80.878906 87.636719 81.246094 88.109375 81.636719 C 88.585938 82.027344 89.042969 82.4375 89.476562 82.875 C 89.910156 83.308594 90.324219 83.761719 90.714844 84.238281 C 91.105469 84.714844 91.472656 85.207031 91.8125 85.71875 C 92.15625 86.230469 92.472656 86.757812 92.761719 87.296875 C 93.050781 87.839844 93.3125 88.394531 93.550781 88.964844 C 93.785156 89.53125 93.992188 90.109375 94.171875 90.699219 C 94.347656 91.285156 94.496094 91.882812 94.617188 92.484375 C 94.738281 93.089844 94.828125 93.695312 94.886719 94.308594 C 94.949219 94.917969 94.980469 95.53125 94.980469 96.148438 Z M 94.980469 96.148438 " fill-opacity="1" fill-rule="nonzero"/><path fill="#03989e" d="M 68.589844 30.285156 C 68.589844 30.734375 68.546875 31.179688 68.460938 31.617188 C 68.371094 32.058594 68.242188 32.484375 68.070312 32.898438 C 67.898438 33.3125 67.6875 33.707031 67.441406 34.078125 C 67.191406 34.453125 66.90625 34.796875 66.589844 35.113281 C 66.273438 35.429688 65.925781 35.714844 65.554688 35.964844 C 65.183594 36.210938 64.789062 36.421875 64.375 36.59375 C 63.960938 36.765625 63.53125 36.894531 63.09375 36.984375 C 62.652344 37.070312 62.207031 37.113281 61.757812 37.113281 C 61.308594 37.113281 60.867188 37.070312 60.425781 36.984375 C 59.984375 36.894531 59.558594 36.765625 59.144531 36.59375 C 58.730469 36.421875 58.335938 36.210938 57.964844 35.964844 C 57.589844 35.714844 57.246094 35.429688 56.929688 35.113281 C 56.609375 34.796875 56.328125 34.453125 56.078125 34.078125 C 55.828125 33.707031 55.617188 33.3125 55.445312 32.898438 C 55.273438 32.484375 55.144531 32.058594 55.058594 31.617188 C 54.96875 31.179688 54.925781 30.734375 54.925781 30.285156 C 54.925781 29.839844 54.96875 29.394531 55.058594 28.953125 C 55.144531 28.515625 55.273438 28.085938 55.445312 27.671875 C 55.617188 27.257812 55.828125 26.867188 56.078125 26.492188 C 56.328125 26.121094 56.609375 25.777344 56.929688 25.457031 C 57.246094 25.140625 57.589844 24.859375 57.964844 24.609375 C 58.335938 24.359375 58.730469 24.148438 59.144531 23.980469 C 59.558594 23.808594 59.984375 23.675781 60.425781 23.589844 C 60.867188 23.503906 61.308594 23.457031 61.757812 23.457031 C 62.207031 23.457031 62.652344 23.503906 63.09375 23.589844 C 63.53125 23.675781 63.960938 23.808594 64.375 23.980469 C 64.789062 24.148438 65.183594 24.359375 65.554688 24.609375 C 65.925781 24.859375 66.273438 25.140625 66.589844 25.457031 C 66.90625 25.777344 67.191406 26.121094 67.441406 26.492188 C 67.6875 26.867188 67.898438 27.257812 68.070312 27.671875 C 68.242188 28.085938 68.371094 28.515625 68.460938 28.953125 C 68.546875 29.394531 68.589844 29.839844 68.589844 30.285156 Z M 68.589844 30.285156 " fill-opacity="1" fill-rule="nonzero"/><path fill="#03989e" d="M 146.988281 126.300781 C 146.988281 126.75 146.945312 127.195312 146.855469 127.632812 C 146.769531 128.074219 146.640625 128.5 146.46875 128.914062 C 146.296875 129.328125 146.085938 129.722656 145.835938 130.09375 C 145.585938 130.46875 145.304688 130.8125 144.984375 131.128906 C 144.667969 131.445312 144.324219 131.730469 143.949219 131.976562 C 143.578125 132.226562 143.183594 132.4375 142.769531 132.609375 C 142.355469 132.78125 141.929688 132.910156 141.488281 132.996094 C 141.046875 133.085938 140.605469 133.128906 140.15625 133.128906 C 139.707031 133.128906 139.261719 133.085938 138.820312 132.996094 C 138.382812 132.910156 137.953125 132.78125 137.539062 132.609375 C 137.125 132.4375 136.730469 132.226562 136.359375 131.976562 C 135.988281 131.730469 135.640625 131.445312 135.324219 131.128906 C 135.007812 130.8125 134.722656 130.46875 134.472656 130.09375 C 134.226562 129.722656 134.015625 129.328125 133.84375 128.914062 C 133.671875 128.5 133.542969 128.074219 133.453125 127.632812 C 133.367188 127.195312 133.324219 126.75 133.324219 126.300781 C 133.324219 125.851562 133.367188 125.410156 133.453125 124.96875 C 133.542969 124.53125 133.671875 124.101562 133.84375 123.6875 C 134.015625 123.273438 134.226562 122.878906 134.472656 122.507812 C 134.722656 122.136719 135.007812 121.789062 135.324219 121.472656 C 135.640625 121.15625 135.988281 120.875 136.359375 120.625 C 136.730469 120.375 137.125 120.164062 137.539062 119.992188 C 137.953125 119.820312 138.382812 119.691406 138.820312 119.605469 C 139.261719 119.515625 139.707031 119.472656 140.15625 119.472656 C 140.605469 119.472656 141.046875 119.515625 141.488281 119.605469 C 141.929688 119.691406 142.355469 119.820312 142.769531 119.992188 C 143.183594 120.164062 143.578125 120.375 143.949219 120.625 C 144.324219 120.875 144.667969 121.15625 144.984375 121.472656 C 145.304688 121.789062 145.585938 122.136719 145.835938 122.507812 C 146.085938 122.878906 146.296875 123.273438 146.46875 123.6875 C 146.640625 124.101562 146.769531 124.53125 146.855469 124.96875 C 146.945312 125.410156 146.988281 125.851562 146.988281 126.300781 Z M 146.988281 126.300781 " fill-opacity="1" fill-rule="nonzero"/><path fill="#03989e" d="M 33.175781 143.238281 C 33.175781 143.6875 33.132812 144.132812 33.046875 144.570312 C 32.957031 145.011719 32.828125 145.4375 32.65625 145.851562 C 32.484375 146.265625 32.273438 146.660156 32.027344 147.03125 C 31.777344 147.40625 31.492188 147.75 31.175781 148.066406 C 30.859375 148.382812 30.511719 148.667969 30.140625 148.914062 C 29.765625 149.164062 29.375 149.375 28.960938 149.546875 C 28.542969 149.71875 28.117188 149.847656 27.675781 149.933594 C 27.238281 150.023438 26.792969 150.066406 26.34375 150.066406 C 25.894531 150.066406 25.453125 150.023438 25.011719 149.933594 C 24.570312 149.847656 24.144531 149.71875 23.730469 149.546875 C 23.316406 149.375 22.921875 149.164062 22.550781 148.914062 C 22.175781 148.667969 21.832031 148.382812 21.515625 148.066406 C 21.195312 147.75 20.914062 147.40625 20.664062 147.03125 C 20.414062 146.660156 20.203125 146.265625 20.03125 145.851562 C 19.859375 145.4375 19.730469 145.011719 19.644531 144.570312 C 19.554688 144.132812 19.511719 143.6875 19.511719 143.238281 C 19.511719 142.789062 19.554688 142.347656 19.644531 141.90625 C 19.730469 141.46875 19.859375 141.039062 20.03125 140.625 C 20.203125 140.210938 20.414062 139.820312 20.664062 139.445312 C 20.914062 139.074219 21.195312 138.730469 21.515625 138.410156 C 21.832031 138.09375 22.175781 137.8125 22.550781 137.5625 C 22.921875 137.3125 23.316406 137.101562 23.730469 136.929688 C 24.144531 136.761719 24.570312 136.628906 25.011719 136.542969 C 25.453125 136.457031 25.894531 136.410156 26.34375 136.410156 C 26.792969 136.410156 27.238281 136.457031 27.675781 136.542969 C 28.117188 136.628906 28.542969 136.761719 28.960938 136.929688 C 29.375 137.101562 29.765625 137.3125 30.140625 137.5625 C 30.511719 137.8125 30.859375 138.09375 31.175781 138.410156 C 31.492188 138.730469 31.777344 139.074219 32.027344 139.445312 C 32.273438 139.820312 32.484375 140.210938 32.65625 140.625 C 32.828125 141.039062 32.957031 141.46875 33.046875 141.90625 C 33.132812 142.347656 33.175781 142.789062 33.175781 143.238281 Z M 33.175781 143.238281 " fill-opacity="1" fill-rule="nonzero"/><g fill="#ff00ff" fill-opacity="1"><g transform="translate(178.26708, 156.921307)"><g><path d="M 61.265625 -127.546875 C 61.390625 -128.421875 61.695312 -129.101562 62.1875 -129.59375 C 62.6875 -130.09375 63.367188 -130.34375 64.234375 -130.34375 L 92.734375 -130.34375 C 93.597656 -130.34375 94.25 -130.09375 94.6875 -129.59375 C 95.125 -129.101562 95.28125 -128.421875 95.15625 -127.546875 L 79.875 -2.796875 C 79.75 -1.921875 79.40625 -1.234375 78.84375 -0.734375 C 78.289062 -0.242188 77.582031 0 76.71875 0 L 48.234375 0 C 47.359375 0 46.703125 -0.242188 46.265625 -0.734375 C 45.835938 -1.234375 45.6875 -1.921875 45.8125 -2.796875 L 51.578125 -49.34375 C 51.578125 -49.96875 51.328125 -50.28125 50.828125 -50.28125 L 42.078125 -50.28125 C 41.460938 -50.28125 41.15625 -49.96875 41.15625 -49.34375 L 35.375 -2.796875 C 35.25 -1.921875 34.90625 -1.234375 34.34375 -0.734375 C 33.789062 -0.242188 33.144531 0 32.40625 0 L 3.71875 0 C 2.976562 0 2.390625 -0.242188 1.953125 -0.734375 C 1.515625 -1.234375 1.359375 -1.921875 1.484375 -2.796875 L 16.765625 -127.546875 C 16.878906 -128.421875 17.21875 -129.101562 17.78125 -129.59375 C 18.34375 -130.09375 18.992188 -130.34375 19.734375 -130.34375 L 48.40625 -130.34375 C 49.15625 -130.34375 49.742188 -130.09375 50.171875 -129.59375 C 50.609375 -129.101562 50.765625 -128.421875 50.640625 -127.546875 L 45.0625 -81.1875 C 44.8125 -80.5625 45.0625 -80.25 45.8125 -80.25 L 54.5625 -80.25 C 54.8125 -80.25 55.023438 -80.34375 55.203125 -80.53125 C 55.390625 -80.71875 55.484375 -80.9375 55.484375 -81.1875 Z M 61.265625 -127.546875 "/></g></g></g><g fill="#ff00ff" fill-opacity="1"><g transform="translate(279.191532, 156.921307)"><g><path d="M 50.46875 0 C 48.976562 0 48.109375 -0.804688 47.859375 -2.421875 L 42.453125 -49.34375 C 42.453125 -49.84375 42.265625 -50.09375 41.890625 -50.09375 C 41.398438 -50.09375 41.15625 -49.78125 41.15625 -49.15625 L 35.375 -2.796875 C 35.25 -1.921875 34.90625 -1.234375 34.34375 -0.734375 C 33.789062 -0.242188 33.144531 0 32.40625 0 L 3.71875 0 C 2.976562 0 2.390625 -0.242188 1.953125 -0.734375 C 1.515625 -1.234375 1.359375 -1.921875 1.484375 -2.796875 L 16.765625 -127.546875 C 16.878906 -128.421875 17.21875 -129.101562 17.78125 -129.59375 C 18.34375 -130.09375 18.992188 -130.34375 19.734375 -130.34375 L 60.515625 -130.34375 C 70.441406 -130.34375 78.289062 -127.175781 84.0625 -120.84375 C 89.84375 -114.507812 92.734375 -106.128906 92.734375 -95.703125 C 92.734375 -92.722656 92.609375 -90.425781 92.359375 -88.8125 C 91.484375 -81.988281 89.554688 -75.875 86.578125 -70.46875 C 83.597656 -65.070312 79.753906 -60.695312 75.046875 -57.34375 C 74.421875 -56.976562 74.234375 -56.546875 74.484375 -56.046875 L 82.484375 -3.171875 L 82.484375 -2.421875 C 82.484375 -1.671875 82.234375 -1.078125 81.734375 -0.640625 C 81.242188 -0.210938 80.625 0 79.875 0 Z M 48.234375 -100.359375 C 47.609375 -100.359375 47.296875 -100.050781 47.296875 -99.4375 L 44.5 -77.640625 C 44.5 -77.023438 44.8125 -76.71875 45.4375 -76.71875 L 47.859375 -76.71875 C 50.835938 -76.71875 53.347656 -78.019531 55.390625 -80.625 C 57.441406 -83.226562 58.46875 -86.828125 58.46875 -91.421875 C 58.46875 -94.273438 57.785156 -96.476562 56.421875 -98.03125 C 55.054688 -99.582031 53.191406 -100.359375 50.828125 -100.359375 Z M 48.234375 -100.359375 "/></g></g></g><g fill="#00ffff" fill-opacity="1"><g transform="translate(168.258128, 156.921307)"><g><path d="M 61.265625 -127.546875 C 61.390625 -128.421875 61.695312 -129.101562 62.1875 -129.59375 C 62.6875 -130.09375 63.367188 -130.34375 64.234375 -130.34375 L 92.734375 -130.34375 C 93.597656 -130.34375 94.25 -130.09375 94.6875 -129.59375 C 95.125 -129.101562 95.28125 -128.421875 95.15625 -127.546875 L 79.875 -2.796875 C 79.75 -1.921875 79.40625 -1.234375 78.84375 -0.734375 C 78.289062 -0.242188 77.582031 0 76.71875 0 L 48.234375 0 C 47.359375 0 46.703125 -0.242188 46.265625 -0.734375 C 45.835938 -1.234375 45.6875 -1.921875 45.8125 -2.796875 L 51.578125 -49.34375 C 51.578125 -49.96875 51.328125 -50.28125 50.828125 -50.28125 L 42.078125 -50.28125 C 41.460938 -50.28125 41.15625 -49.96875 41.15625 -49.34375 L 35.375 -2.796875 C 35.25 -1.921875 34.90625 -1.234375 34.34375 -0.734375 C 33.789062 -0.242188 33.144531 0 32.40625 0 L 3.71875 0 C 2.976562 0 2.390625 -0.242188 1.953125 -0.734375 C 1.515625 -1.234375 1.359375 -1.921875 1.484375 -2.796875 L 16.765625 -127.546875 C 16.878906 -128.421875 17.21875 -129.101562 17.78125 -129.59375 C 18.34375 -130.09375 18.992188 -130.34375 19.734375 -130.34375 L 48.40625 -130.34375 C 49.15625 -130.34375 49.742188 -130.09375 50.171875 -129.59375 C 50.609375 -129.101562 50.765625 -128.421875 50.640625 -127.546875 L 45.0625 -81.1875 C 44.8125 -80.5625 45.0625 -80.25 45.8125 -80.25 L 54.5625 -80.25 C 54.8125 -80.25 55.023438 -80.34375 55.203125 -80.53125 C 55.390625 -80.71875 55.484375 -80.9375 55.484375 -81.1875 Z M 61.265625 -127.546875 "/></g></g></g><g fill="#00ffff" fill-opacity="1"><g transform="translate(269.18258, 156.921307)"><g><path d="M 50.46875 0 C 48.976562 0 48.109375 -0.804688 47.859375 -2.421875 L 42.453125 -49.34375 C 42.453125 -49.84375 42.265625 -50.09375 41.890625 -50.09375 C 41.398438 -50.09375 41.15625 -49.78125 41.15625 -49.15625 L 35.375 -2.796875 C 35.25 -1.921875 34.90625 -1.234375 34.34375 -0.734375 C 33.789062 -0.242188 33.144531 0 32.40625 0 L 3.71875 0 C 2.976562 0 2.390625 -0.242188 1.953125 -0.734375 C 1.515625 -1.234375 1.359375 -1.921875 1.484375 -2.796875 L 16.765625 -127.546875 C 16.878906 -128.421875 17.21875 -129.101562 17.78125 -129.59375 C 18.34375 -130.09375 18.992188 -130.34375 19.734375 -130.34375 L 60.515625 -130.34375 C 70.441406 -130.34375 78.289062 -127.175781 84.0625 -120.84375 C 89.84375 -114.507812 92.734375 -106.128906 92.734375 -95.703125 C 92.734375 -92.722656 92.609375 -90.425781 92.359375 -88.8125 C 91.484375 -81.988281 89.554688 -75.875 86.578125 -70.46875 C 83.597656 -65.070312 79.753906 -60.695312 75.046875 -57.34375 C 74.421875 -56.976562 74.234375 -56.546875 74.484375 -56.046875 L 82.484375 -3.171875 L 82.484375 -2.421875 C 82.484375 -1.671875 82.234375 -1.078125 81.734375 -0.640625 C 81.242188 -0.210938 80.625 0 79.875 0 Z M 48.234375 -100.359375 C 47.609375 -100.359375 47.296875 -100.050781 47.296875 -99.4375 L 44.5 -77.640625 C 44.5 -77.023438 44.8125 -76.71875 45.4375 -76.71875 L 47.859375 -76.71875 C 50.835938 -76.71875 53.347656 -78.019531 55.390625 -80.625 C 57.441406 -83.226562 58.46875 -86.828125 58.46875 -91.421875 C 58.46875 -94.273438 57.785156 -96.476562 56.421875 -98.03125 C 55.054688 -99.582031 53.191406 -100.359375 50.828125 -100.359375 Z M 48.234375 -100.359375 "/></g></g></g><g fill="#ffffff" fill-opacity="1"><g transform="translate(173.262604, 156.921307)"><g><path d="M 61.265625 -127.546875 C 61.390625 -128.421875 61.695312 -129.101562 62.1875 -129.59375 C 62.6875 -130.09375 63.367188 -130.34375 64.234375 -130.34375 L 92.734375 -130.34375 C 93.597656 -130.34375 94.25 -130.09375 94.6875 -129.59375 C 95.125 -129.101562 95.28125 -128.421875 95.15625 -127.546875 L 79.875 -2.796875 C 79.75 -1.921875 79.40625 -1.234375 78.84375 -0.734375 C 78.289062 -0.242188 77.582031 0 76.71875 0 L 48.234375 0 C 47.359375 0 46.703125 -0.242188 46.265625 -0.734375 C 45.835938 -1.234375 45.6875 -1.921875 45.8125 -2.796875 L 51.578125 -49.34375 C 51.578125 -49.96875 51.328125 -50.28125 50.828125 -50.28125 L 42.078125 -50.28125 C 41.460938 -50.28125 41.15625 -49.96875 41.15625 -49.34375 L 35.375 -2.796875 C 35.25 -1.921875 34.90625 -1.234375 34.34375 -0.734375 C 33.789062 -0.242188 33.144531 0 32.40625 0 L 3.71875 0 C 2.976562 0 2.390625 -0.242188 1.953125 -0.734375 C 1.515625 -1.234375 1.359375 -1.921875 1.484375 -2.796875 L 16.765625 -127.546875 C 16.878906 -128.421875 17.21875 -129.101562 17.78125 -129.59375 C 18.34375 -130.09375 18.992188 -130.34375 19.734375 -130.34375 L 48.40625 -130.34375 C 49.15625 -130.34375 49.742188 -130.09375 50.171875 -129.59375 C 50.609375 -129.101562 50.765625 -128.421875 50.640625 -127.546875 L 45.0625 -81.1875 C 44.8125 -80.5625 45.0625 -80.25 45.8125 -80.25 L 54.5625 -80.25 C 54.8125 -80.25 55.023438 -80.34375 55.203125 -80.53125 C 55.390625 -80.71875 55.484375 -80.9375 55.484375 -81.1875 Z M 61.265625 -127.546875 "/></g></g></g><g fill="#ffffff" fill-opacity="1"><g transform="translate(274.187056, 156.921307)"><g><path d="M 50.46875 0 C 48.976562 0 48.109375 -0.804688 47.859375 -2.421875 L 42.453125 -49.34375 C 42.453125 -49.84375 42.265625 -50.09375 41.890625 -50.09375 C 41.398438 -50.09375 41.15625 -49.78125 41.15625 -49.15625 L 35.375 -2.796875 C 35.25 -1.921875 34.90625 -1.234375 34.34375 -0.734375 C 33.789062 -0.242188 33.144531 0 32.40625 0 L 3.71875 0 C 2.976562 0 2.390625 -0.242188 1.953125 -0.734375 C 1.515625 -1.234375 1.359375 -1.921875 1.484375 -2.796875 L 16.765625 -127.546875 C 16.878906 -128.421875 17.21875 -129.101562 17.78125 -129.59375 C 18.34375 -130.09375 18.992188 -130.34375 19.734375 -130.34375 L 60.515625 -130.34375 C 70.441406 -130.34375 78.289062 -127.175781 84.0625 -120.84375 C 89.84375 -114.507812 92.734375 -106.128906 92.734375 -95.703125 C 92.734375 -92.722656 92.609375 -90.425781 92.359375 -88.8125 C 91.484375 -81.988281 89.554688 -75.875 86.578125 -70.46875 C 83.597656 -65.070312 79.753906 -60.695312 75.046875 -57.34375 C 74.421875 -56.976562 74.234375 -56.546875 74.484375 -56.046875 L 82.484375 -3.171875 L 82.484375 -2.421875 C 82.484375 -1.671875 82.234375 -1.078125 81.734375 -0.640625 C 81.242188 -0.210938 80.625 0 79.875 0 Z M 48.234375 -100.359375 C 47.609375 -100.359375 47.296875 -100.050781 47.296875 -99.4375 L 44.5 -77.640625 C 44.5 -77.023438 44.8125 -76.71875 45.4375 -76.71875 L 47.859375 -76.71875 C 50.835938 -76.71875 53.347656 -78.019531 55.390625 -80.625 C 57.441406 -83.226562 58.46875 -86.828125 58.46875 -91.421875 C 58.46875 -94.273438 57.785156 -96.476562 56.421875 -98.03125 C 55.054688 -99.582031 53.191406 -100.359375 50.828125 -100.359375 Z M 48.234375 -100.359375 "/></g></g></g></svg>