<svg width="369" height="128" viewBox="0 0 369 128" fill="none" xmlns="http://www.w3.org/2000/svg">
<path d="M128.274 127.659L126.997 127.361L126.869 123.137C126.742 118.273 126.784 118.188 129.977 118.188C135.426 118.188 138.066 116.012 140.364 109.783L141.769 105.9L132.787 80.8981C124.954 59.096 123.847 55.7681 124.315 55.0428C124.826 54.2321 125.252 54.1895 130.147 54.2748L135.426 54.4028L141.258 71.8956L147.091 89.3885L149.219 82.7753C150.369 79.1488 152.838 71.213 154.711 65.1972L158.074 54.1895H163.268C168.036 54.1895 168.504 54.2748 168.93 55.0428C169.313 55.7681 167.567 61.2293 158.926 86.1033C153.136 102.7 147.814 117.42 147.091 118.828C145.388 122.028 142.067 125.398 139.343 126.763C137.64 127.574 136.49 127.787 133.383 127.873C131.297 127.915 128.998 127.787 128.274 127.659Z" fill="#3070E5"/>
<path d="M297.41 126.848C297.878 126.165 301.369 122.027 305.158 117.547C308.989 113.11 313.842 107.222 316.013 104.534C318.142 101.846 321.59 97.7075 323.633 95.3609C328.699 89.5157 330.019 87.4678 329.295 86.6998C328.231 85.6758 325.507 85.3345 318.142 85.3345C311.416 85.3345 294.557 86.6998 293.536 87.3398C293.28 87.5104 293.238 87.3824 293.45 87.0838C294.43 85.4625 302.731 81.0679 304.732 81.0679C305.2 81.0679 305.583 80.8973 305.583 80.6413C305.583 80.428 305.115 80.2146 304.562 80.2146C303.966 80.2146 301.922 79.7026 299.964 79.1053C294.642 77.4414 288.342 74.1561 291.748 74.8388C301.156 76.7161 315.417 77.0147 322.612 75.5641C330.36 73.9428 332.659 72.2788 335.511 66.263C336.788 63.5324 336.873 63.0631 336.831 58.8819C336.745 46.8929 330.019 24.7068 321.037 6.65929C319.291 3.20338 317.971 0.216796 318.142 0.0887994C318.993 -0.764511 326.06 4.65401 332.446 11.0965C344.323 23.1282 354.157 40.1944 358.627 56.5779C359.649 60.3752 359.691 61.0578 359.308 63.2764C358.925 65.239 357.69 68.4816 356.371 70.8709C356.286 70.9989 357.776 71.3402 359.649 71.5962C363.31 72.1082 364.715 72.7055 366.843 74.4975C369.057 76.3321 369.227 77.0574 367.865 78.3374C365.651 80.3853 361.054 82.3479 355.647 83.4999C354.2 83.7985 353.944 84.0545 353.263 85.8465C351.816 89.6864 347.686 95.1902 341.982 100.95C335.383 107.606 321.292 119.424 316.694 122.155C310.862 125.653 303.54 128 298.559 128H296.601L297.41 126.848Z" fill="#3070E5"/>
<path d="M14.7367 107.691C7.03134 105.856 1.07137 99.7979 0.134802 92.9714C-0.29091 89.7715 -0.0354824 89.6009 5.88192 89.6009H10.8627L11.1607 91.3501C11.5439 93.7821 12.4379 95.318 14.1833 96.6407C18.483 99.9259 26.7418 99.7126 30.1049 96.2567C31.3395 94.9767 31.5524 94.4221 31.5524 92.8008C31.5524 88.9609 29.2961 87.4249 20.3561 85.1636C10.2668 82.6037 6.0522 80.3424 3.45536 75.9906C-0.759193 68.9508 2.81679 59.479 11.1182 55.5111C14.8219 53.7618 18.3127 53.1645 23.4638 53.4632C33.7661 54.0178 40.5349 59.1803 42.11 67.5854C42.4932 69.7187 42.4506 70.1454 41.812 70.8707C41.1735 71.5533 40.4498 71.6813 36.7461 71.6813C33.0849 71.6813 32.3186 71.5533 31.7226 70.9134C31.2969 70.4867 30.9989 69.7614 30.9989 69.2921C30.9989 66.9881 27.7635 64.0869 24.2301 63.1482C20.6541 62.2096 15.3753 63.5322 13.8002 65.7935C11.8845 68.4814 12.821 71.8947 15.8436 73.388C16.8227 73.8573 20.271 74.9239 23.4638 75.7346C30.5307 77.5692 34.4898 79.1478 37.342 81.2384C42.8337 85.2916 44.3663 92.2461 41.1735 98.8593C39.13 103.168 34.9581 106.198 29.0832 107.734C25.933 108.544 18.0999 108.544 14.7367 107.691Z" fill="#3070E5"/>
<path d="M224.953 107.734C220.867 106.283 218.185 102.358 217.461 96.854C217.248 95.1047 217.035 86.7849 217.035 78.4225V63.1909L212.693 63.0629L208.308 62.9349L208.18 59.1803C208.095 56.7484 208.223 55.1698 208.563 54.7858C208.904 54.3591 210.139 54.1885 213.033 54.1885H217.035V48.7273C217.035 41.7301 216.95 41.8155 222.867 41.8155C228.572 41.8155 228.529 41.7301 228.529 48.77V54.1885H232.531C237.682 54.1885 237.895 54.3591 237.895 58.839C237.895 60.8016 237.682 62.3376 237.384 62.6362C237.044 62.9776 235.383 63.1482 232.701 63.1482H228.529V79.7878V96.47L229.636 97.5793C230.658 98.6033 230.913 98.6459 233.851 98.4753C235.766 98.3473 237.171 98.4326 237.469 98.7313C237.682 98.9446 237.895 100.993 237.895 103.296V107.435L235.766 107.904C232.786 108.544 226.954 108.459 224.953 107.734Z" fill="#3070E5"/>
<path d="M64.46 106.581C64.3323 106.027 60.9691 94.3791 57.01 80.6408C50.2412 57.3881 49.8155 55.6815 50.454 54.9562C51.05 54.3162 51.8589 54.1882 55.8606 54.1882H60.6286L62.2037 60.2893C63.0551 63.6173 64.6303 69.6331 65.6945 73.601C66.7588 77.6115 68.036 82.5181 68.5468 84.6087C69.0577 86.6566 69.6111 88.3206 69.7388 88.3206C69.9942 88.3206 73.9534 75.8196 79.0193 59.18L80.5519 54.1455L85.0219 54.2735L89.4493 54.4015L90.2156 56.7481C90.6413 58.0281 93.0253 65.7079 95.537 73.8143C98.0061 81.9208 100.177 88.6619 100.348 88.8326C100.518 89.0459 102.646 81.2808 105.073 71.681L109.458 54.1882H114.226C119.036 54.1882 119.973 54.4868 119.973 55.8948C119.973 56.2361 116.652 67.9691 112.608 81.9208L105.201 107.307L100.731 107.435L96.2607 107.563L93.8767 100.182C92.5996 96.1284 90.0453 88.2352 88.2573 82.6461C86.4693 77.0142 84.8516 72.577 84.7239 72.7477C84.5536 72.9183 82.0419 80.7261 79.1045 90.1552L73.7405 107.307L69.228 107.435C64.8431 107.563 64.7154 107.52 64.46 106.581Z" fill="#3070E5"/>
<path d="M182.765 107.008C182.638 106.71 182.51 96.7687 182.425 84.9077L182.34 63.3616L178.508 63.1483L174.677 62.935L174.549 59.1804C174.464 56.7912 174.592 55.1699 174.89 54.7859C175.23 54.4019 176.593 54.1886 178.849 54.1032L182.34 53.9752L182.595 49.0687C183.021 40.9196 185.532 36.525 191.407 33.6238C194.174 32.2585 194.387 32.2158 199.794 32.2158C202.816 32.2158 205.839 32.3438 206.435 32.5145C207.499 32.8131 207.499 32.8558 207.329 36.5677C207.073 41.6022 206.861 41.8156 202.178 41.8156C197.538 41.8156 195.92 42.5409 194.6 45.2288C193.834 46.7221 193.621 47.8314 193.621 50.6473V54.1886H198.432C201.624 54.1886 203.412 54.3592 203.753 54.7005C204.434 55.3832 204.434 61.9537 203.753 62.6363C203.412 62.9777 201.624 63.1483 198.432 63.1483H193.621V84.6091C193.621 104.875 193.578 106.155 192.855 106.795C192.216 107.392 191.152 107.52 187.491 107.52C184.255 107.52 182.893 107.35 182.765 107.008Z" fill="#3070E5"/>
<path d="M244.238 106.625C243.813 105.814 244.749 104.279 252.114 93.1855L260.458 80.6418L252.327 68.4395C242.365 53.4212 242.45 54.1892 250.666 54.1892H256.073L261.139 62.7223C263.949 67.4155 266.333 71.1701 266.503 71.1274C266.673 71.0848 269.1 67.2875 271.867 62.7223L276.89 54.4026L282.425 54.2746C287.831 54.1892 288.001 54.1892 288.427 55.1279C288.895 56.1518 289.662 54.9145 276.592 74.7113L272.761 80.5565L281.02 93.0148C291.237 108.332 291.109 107.521 282.978 107.521H277.572L272.165 98.7747C269.185 93.9535 266.631 90.0283 266.503 90.0283C266.333 90.0283 263.821 93.9962 260.884 98.7747L255.562 107.521H250.156C245.09 107.521 244.707 107.478 244.238 106.625Z" fill="#3070E5"/>
</svg>
